<!-- Generated by Mocodo 4.3.2 -->
<svg width="1415" height="687" viewBox="0 0 1415 687" xmlns="http://www.w3.org/2000/svg">
<rect x="0" y="0" width="1415" height="687" fill="#f7f7f7" stroke="none" stroke-width="0"/>

<!-- Association TRACKS -->
<g>
	<line x1="419" y1="68" x2="596" y2="68" stroke="#de77ae" stroke-width="2"/>
	<line x1="596" y1="339" x2="596" y2="68" stroke="#de77ae" stroke-width="2"/>
	<g>
		<path d="M614 43 a14 14 90 0 1 14 14 V68 h-64 V57 a14 14 90 0 1 14 -14" fill="#f1b6da" stroke="#f1b6da" stroke-width="0"/>
		<path d="M628 68 v11 a14 14 90 0 1 -14 14 H578 a14 14 90 0 1 -14 -14 V68 H64" fill="#fde0ef" stroke="#fde0ef" stroke-width="0"/>
		<rect x="564" y="43" width="64" height="50" fill="none" rx="14" stroke="#de77ae" stroke-width="2"/>
		<line x1="564" y1="68" x2="628" y2="68" stroke="#de77ae" stroke-width="1"/>
		<text x="571" y="60.75" fill="#000000" font-family="Verdana" font-size="12">TRACKS</text>
	</g>
	<text x="510" y="85" fill="#4d9221" font-family="Verdana" font-size="12">1,1</text>
	<text x="601" y="127" fill="#4d9221" font-family="Verdana" font-size="12">0,N</text>
</g>

<!-- Association MATCHES -->
<g>
	<line x1="948" y1="339" x2="948" y2="68" stroke="#de77ae" stroke-width="2"/>
	<line x1="780" y1="68" x2="948" y2="68" stroke="#de77ae" stroke-width="2"/>
	<g>
		<path d="M971 43 a14 14 90 0 1 14 14 V68 h-74 V57 a14 14 90 0 1 14 -14" fill="#f1b6da" stroke="#f1b6da" stroke-width="0"/>
		<path d="M985 68 v11 a14 14 90 0 1 -14 14 H925 a14 14 90 0 1 -14 -14 V68 H74" fill="#fde0ef" stroke="#fde0ef" stroke-width="0"/>
		<rect x="911" y="43" width="74" height="50" fill="none" rx="14" stroke="#de77ae" stroke-width="2"/>
		<line x1="911" y1="68" x2="985" y2="68" stroke="#de77ae" stroke-width="1"/>
		<text x="918" y="60.75" fill="#000000" font-family="Verdana" font-size="12">MATCHES</text>
	</g>
	<text x="953" y="246" fill="#4d9221" font-family="Verdana" font-size="12">1,1</text>
	<text x="850" y="85" fill="#4d9221" font-family="Verdana" font-size="12">0,N</text>
</g>

<!-- Association HAS -->
<g>
	<line x1="236" y1="339" x2="74" y2="339" stroke="#de77ae" stroke-width="2"/>
	<line x1="74" y1="68" x2="74" y2="339" stroke="#de77ae" stroke-width="2"/>
	<g>
		<path d="M80 314 a14 14 90 0 1 14 14 V339 h-40 V328 a14 14 90 0 1 14 -14" fill="#f1b6da" stroke="#f1b6da" stroke-width="0"/>
		<path d="M94 339 v11 a14 14 90 0 1 -14 14 H68 a14 14 90 0 1 -14 -14 V339 H40" fill="#fde0ef" stroke="#fde0ef" stroke-width="0"/>
		<rect x="54" y="314" width="40" height="50" fill="none" rx="14" stroke="#de77ae" stroke-width="2"/>
		<line x1="54" y1="339" x2="94" y2="339" stroke="#de77ae" stroke-width="1"/>
		<text x="61" y="331.75" fill="#000000" font-family="Verdana" font-size="12">HAS</text>
	</g>
	<text x="119" y="356" fill="#4d9221" font-family="Verdana" font-size="12">1,1</text>
	<text x="79" y="119" fill="#4d9221" font-family="Verdana" font-size="12">0,N</text>
</g>

<!-- Association PLACES -->
<g>
	<line x1="596" y1="339" x2="419" y2="339" stroke="#de77ae" stroke-width="2"/>
	<line x1="236" y1="339" x2="419" y2="339" stroke="#de77ae" stroke-width="2"/>
	<g>
		<path d="M436 314 a14 14 90 0 1 14 14 V339 h-62 V328 a14 14 90 0 1 14 -14" fill="#f1b6da" stroke="#f1b6da" stroke-width="0"/>
		<path d="M450 339 v11 a14 14 90 0 1 -14 14 H402 a14 14 90 0 1 -14 -14 V339 H62" fill="#fde0ef" stroke="#fde0ef" stroke-width="0"/>
		<rect x="388" y="314" width="62" height="50" fill="none" rx="14" stroke="#de77ae" stroke-width="2"/>
		<line x1="388" y1="339" x2="450" y2="339" stroke="#de77ae" stroke-width="1"/>
		<text x="396" y="331.75" fill="#000000" font-family="Verdana" font-size="12">PLACES</text>
	</g>
	<text x="456" y="356" fill="#4d9221" font-family="Verdana" font-size="12">1,1</text>
	<text x="332" y="356" fill="#4d9221" font-family="Verdana" font-size="12">0,N</text>
</g>

<!-- Association CHOOSES -->
<g>
	<line x1="596" y1="339" x2="780" y2="339" stroke="#de77ae" stroke-width="2"/>
	<line x1="948" y1="339" x2="780" y2="339" stroke="#de77ae" stroke-width="2"/>
	<g>
		<path d="M804 314 a14 14 90 0 1 14 14 V339 h-76 V328 a14 14 90 0 1 14 -14" fill="#f1b6da" stroke="#f1b6da" stroke-width="0"/>
		<path d="M818 339 v11 a14 14 90 0 1 -14 14 H756 a14 14 90 0 1 -14 -14 V339 H76" fill="#fde0ef" stroke="#fde0ef" stroke-width="0"/>
		<rect x="742" y="314" width="76" height="50" fill="none" rx="14" stroke="#de77ae" stroke-width="2"/>
		<line x1="742" y1="339" x2="818" y2="339" stroke="#de77ae" stroke-width="1"/>
		<text x="750" y="331.75" fill="#000000" font-family="Verdana" font-size="12">CHOOSES</text>
	</g>
	<text x="715" y="356" fill="#4d9221" font-family="Verdana" font-size="12">1,1</text>
	<text x="823" y="356" fill="#4d9221" font-family="Verdana" font-size="12">0,N</text>
</g>

<!-- Association BELONGS_TO -->
<g>
	<line x1="1127" y1="68" x2="1127" y2="339" stroke="#de77ae" stroke-width="2"/>
	<line x1="948" y1="339" x2="1127" y2="339" stroke="#de77ae" stroke-width="2"/>
	<g>
		<path d="M1162 314 a14 14 90 0 1 14 14 V339 h-98 V328 a14 14 90 0 1 14 -14" fill="#f1b6da" stroke="#f1b6da" stroke-width="0"/>
		<path d="M1176 339 v11 a14 14 90 0 1 -14 14 H1092 a14 14 90 0 1 -14 -14 V339 H98" fill="#fde0ef" stroke="#fde0ef" stroke-width="0"/>
		<rect x="1078" y="314" width="98" height="50" fill="none" rx="14" stroke="#de77ae" stroke-width="2"/>
		<line x1="1078" y1="339" x2="1176" y2="339" stroke="#de77ae" stroke-width="1"/>
		<text x="1085" y="331.75" fill="#000000" font-family="Verdana" font-size="12">BELONGS_TO</text>
	</g>
	<text x="1132" y="119" fill="#4d9221" font-family="Verdana" font-size="12">1,1</text>
	<text x="1051" y="331" fill="#4d9221" font-family="Verdana" font-size="12">0,N</text>
</g>

<!-- Association HAS_ALLERGEN -->
<g>
	<line x1="1317" y1="619" x2="1317" y2="339" stroke="#de77ae" stroke-width="2"/>
	<line x1="1317" y1="68" x2="1317" y2="339" stroke="#de77ae" stroke-width="2"/>
	<g>
		<path d="M1359 314 a14 14 90 0 1 14 14 V339 h-112 V328 a14 14 90 0 1 14 -14" fill="#f1b6da" stroke="#f1b6da" stroke-width="0"/>
		<path d="M1373 339 v11 a14 14 90 0 1 -14 14 H1275 a14 14 90 0 1 -14 -14 V339 H112" fill="#fde0ef" stroke="#fde0ef" stroke-width="0"/>
		<rect x="1261" y="314" width="112" height="50" fill="none" rx="14" stroke="#de77ae" stroke-width="2"/>
		<line x1="1261" y1="339" x2="1373" y2="339" stroke="#de77ae" stroke-width="1"/>
		<text x="1268" y="331.75" fill="#000000" font-family="Verdana" font-size="12">HAS_ALLERGEN</text>
	</g>
	<text x="1322" y="552" fill="#4d9221" font-family="Verdana" font-size="12">0,N</text>
	<text x="1322" y="119" fill="#4d9221" font-family="Verdana" font-size="12">0,N</text>
</g>

<!-- Association CONCERNS -->
<g>
	<line x1="419" y1="619" x2="596" y2="619" stroke="#de77ae" stroke-width="2"/>
	<line x1="596" y1="339" x2="596" y2="619" stroke="#de77ae" stroke-width="2"/>
	<g>
		<path d="M624 594 a14 14 90 0 1 14 14 V619 h-84 V608 a14 14 90 0 1 14 -14" fill="#f1b6da" stroke="#f1b6da" stroke-width="0"/>
		<path d="M638 619 v11 a14 14 90 0 1 -14 14 H568 a14 14 90 0 1 -14 -14 V619 H84" fill="#fde0ef" stroke="#fde0ef" stroke-width="0"/>
		<rect x="554" y="594" width="84" height="50" fill="none" rx="14" stroke="#de77ae" stroke-width="2"/>
		<line x1="554" y1="619" x2="638" y2="619" stroke="#de77ae" stroke-width="1"/>
		<text x="562" y="611.75" fill="#000000" font-family="Verdana" font-size="12">CONCERNS</text>
	</g>
	<text x="511" y="636" fill="#4d9221" font-family="Verdana" font-size="12">1,1</text>
	<text x="601" y="560" fill="#4d9221" font-family="Verdana" font-size="12">0,1</text>
</g>

<!-- Association SUITS -->
<g>
	<line x1="948" y1="339" x2="948" y2="619" stroke="#de77ae" stroke-width="2"/>
	<line x1="780" y1="619" x2="948" y2="619" stroke="#de77ae" stroke-width="2"/>
	<g>
		<path d="M961 594 a14 14 90 0 1 14 14 V619 h-54 V608 a14 14 90 0 1 14 -14" fill="#f1b6da" stroke="#f1b6da" stroke-width="0"/>
		<path d="M975 619 v11 a14 14 90 0 1 -14 14 H935 a14 14 90 0 1 -14 -14 V619 H54" fill="#fde0ef" stroke="#fde0ef" stroke-width="0"/>
		<rect x="921" y="594" width="54" height="50" fill="none" rx="14" stroke="#de77ae" stroke-width="2"/>
		<line x1="921" y1="619" x2="975" y2="619" stroke="#de77ae" stroke-width="1"/>
		<text x="929" y="611.75" fill="#000000" font-family="Verdana" font-size="12">SUITS</text>
	</g>
	<text x="922" y="441" fill="#4d9221" font-family="Verdana" font-size="12">1,1</text>
	<text x="850" y="636" fill="#4d9221" font-family="Verdana" font-size="12">0,N</text>
</g>

<!-- Association COMPOSES -->
<g>
	<line x1="948" y1="339" x2="1127" y2="619" stroke="#de77ae" stroke-width="2"/>
	<line x1="1317" y1="619" x2="1127" y2="619" stroke="#de77ae" stroke-width="2"/>
	<g>
		<path d="M1155 594 a14 14 90 0 1 14 14 V619 h-84 V608 a14 14 90 0 1 14 -14" fill="#f1b6da" stroke="#f1b6da" stroke-width="0"/>
		<path d="M1169 619 v11 a14 14 90 0 1 -14 14 H1099 a14 14 90 0 1 -14 -14 V619 H84" fill="#fde0ef" stroke="#fde0ef" stroke-width="0"/>
		<rect x="1085" y="594" width="84" height="50" fill="none" rx="14" stroke="#de77ae" stroke-width="2"/>
		<line x1="1085" y1="619" x2="1169" y2="619" stroke="#de77ae" stroke-width="1"/>
		<text x="1092" y="611.75" fill="#000000" font-family="Verdana" font-size="12">COMPOSES</text>
	</g>
	<text x="980.26" y="441" fill="#4d9221" font-family="Verdana" font-size="12">0,N</text>
	<text x="1201" y="636" fill="#4d9221" font-family="Verdana" font-size="12">0,N</text>
</g>

<!-- Entity ROLE -->
<g>
	<g>
		<rect x="9" y="34" width="130" height="25" fill="#b8e186" stroke="none" stroke-width="0" opacity="1"/>
		<rect x="9" y="59" width="130" height="43" fill="#e6f5d0" stroke="none" stroke-width="0" opacity="1"/>
		<rect x="9" y="34" width="130" height="68" fill="none" stroke="#7fbc41" stroke-width="2" opacity="1"/>
		<line x1="9" y1="59" x2="139" y2="59" stroke="#7fbc41" stroke-width="1"/>
	</g>
	<text x="58" y="51.75" fill="#000000" font-family="Verdana" font-size="12">ROLE</text>
	<text x="14" y="76.8" fill="#000000" font-family="Verdana" font-size="12">id_role</text>
	<line x1="14" y1="79" x2="56" y2="79" stroke="#000000" stroke-width="1"/>
	<text x="14" y="93.8" fill="#000000" font-family="Verdana" font-size="12">label VARCHAR(50)</text>
</g>

<!-- Entity OPEN_HOURS -->
<g>
	<g>
		<rect x="171" y="9" width="130" height="25" fill="#b8e186" stroke="none" stroke-width="0" opacity="1"/>
		<rect x="171" y="34" width="130" height="93" fill="#e6f5d0" stroke="none" stroke-width="0" opacity="1"/>
		<rect x="171" y="9" width="130" height="118" fill="none" stroke="#7fbc41" stroke-width="2" opacity="1"/>
		<line x1="171" y1="34" x2="301" y2="34" stroke="#7fbc41" stroke-width="1"/>
	</g>
	<text x="193" y="26.75" fill="#000000" font-family="Verdana" font-size="12">OPEN_HOURS</text>
	<text x="176" y="51.8" fill="#000000" font-family="Verdana" font-size="12">id_open_hours</text>
	<line x1="176" y1="54" x2="266" y2="54" stroke="#000000" stroke-width="1"/>
	<text x="176" y="68.8" fill="#000000" font-family="Verdana" font-size="12">day_of_week INT</text>
	<text x="176" y="85.8" fill="#000000" font-family="Verdana" font-size="12">open_time TIME</text>
	<text x="176" y="102.8" fill="#000000" font-family="Verdana" font-size="12">close_time TIME</text>
	<text x="176" y="119.8" fill="#000000" font-family="Verdana" font-size="12">is_closed BOOLEAN</text>
</g>

<!-- Entity ORDER_STATUS_HISTORY -->
<g>
	<g>
		<rect x="333" y="26" width="172" height="25" fill="#b8e186" stroke="none" stroke-width="0" opacity="1"/>
		<rect x="333" y="51" width="172" height="59" fill="#e6f5d0" stroke="none" stroke-width="0" opacity="1"/>
		<rect x="333" y="26" width="172" height="84" fill="none" stroke="#7fbc41" stroke-width="2" opacity="1"/>
		<line x1="333" y1="51" x2="505" y2="51" stroke="#7fbc41" stroke-width="1"/>
	</g>
	<text x="338" y="43.75" fill="#000000" font-family="Verdana" font-size="12">ORDER_STATUS_HISTORY</text>
	<text x="338" y="68.8" fill="#000000" font-family="Verdana" font-size="12">id_status_history</text>
	<line x1="338" y1="71" x2="443" y2="71" stroke="#000000" stroke-width="1"/>
	<text x="338" y="85.8" fill="#000000" font-family="Verdana" font-size="12">status VARCHAR(30)</text>
	<text x="338" y="102.8" fill="#000000" font-family="Verdana" font-size="12">changed_at TIMESTAMP</text>
</g>

<!-- Entity DIET -->
<g>
	<g>
		<rect x="715" y="34" width="130" height="25" fill="#b8e186" stroke="none" stroke-width="0" opacity="1"/>
		<rect x="715" y="59" width="130" height="43" fill="#e6f5d0" stroke="none" stroke-width="0" opacity="1"/>
		<rect x="715" y="34" width="130" height="68" fill="none" stroke="#7fbc41" stroke-width="2" opacity="1"/>
		<line x1="715" y1="59" x2="845" y2="59" stroke="#7fbc41" stroke-width="1"/>
	</g>
	<text x="765" y="51.75" fill="#000000" font-family="Verdana" font-size="12">DIET</text>
	<text x="720" y="76.8" fill="#000000" font-family="Verdana" font-size="12">id_diet</text>
	<line x1="720" y1="79" x2="762" y2="79" stroke="#000000" stroke-width="1"/>
	<text x="720" y="93.8" fill="#000000" font-family="Verdana" font-size="12">label VARCHAR(50)</text>
</g>

<!-- Entity PICTURE -->
<g>
	<g>
		<rect x="1037" y="34" width="180" height="25" fill="#b8e186" stroke="none" stroke-width="0" opacity="1"/>
		<rect x="1037" y="59" width="180" height="43" fill="#e6f5d0" stroke="none" stroke-width="0" opacity="1"/>
		<rect x="1037" y="34" width="180" height="68" fill="none" stroke="#7fbc41" stroke-width="2" opacity="1"/>
		<line x1="1037" y1="59" x2="1217" y2="59" stroke="#7fbc41" stroke-width="1"/>
	</g>
	<text x="1100" y="51.75" fill="#000000" font-family="Verdana" font-size="12">PICTURE</text>
	<text x="1042" y="76.8" fill="#000000" font-family="Verdana" font-size="12">id_picture</text>
	<line x1="1042" y1="79" x2="1103" y2="79" stroke="#000000" stroke-width="1"/>
	<text x="1042" y="93.8" fill="#000000" font-family="Verdana" font-size="12">image_path VARCHAR(255)</text>
</g>

<!-- Entity ALLERGEN -->
<g>
	<g>
		<rect x="1249" y="34" width="136" height="25" fill="#b8e186" stroke="none" stroke-width="0" opacity="1"/>
		<rect x="1249" y="59" width="136" height="43" fill="#e6f5d0" stroke="none" stroke-width="0" opacity="1"/>
		<rect x="1249" y="34" width="136" height="68" fill="none" stroke="#7fbc41" stroke-width="2" opacity="1"/>
		<line x1="1249" y1="59" x2="1385" y2="59" stroke="#7fbc41" stroke-width="1"/>
	</g>
	<text x="1285" y="51.75" fill="#000000" font-family="Verdana" font-size="12">ALLERGEN</text>
	<text x="1254" y="76.8" fill="#000000" font-family="Verdana" font-size="12">id_allergen</text>
	<line x1="1254" y1="79" x2="1322" y2="79" stroke="#000000" stroke-width="1"/>
	<text x="1254" y="93.8" fill="#000000" font-family="Verdana" font-size="12">label VARCHAR(100)</text>
</g>

<!-- Entity USER -->
<g>
	<g>
		<rect x="145" y="220" width="182" height="25" fill="#b8e186" stroke="none" stroke-width="0" opacity="1"/>
		<rect x="145" y="245" width="182" height="213" fill="#e6f5d0" stroke="none" stroke-width="0" opacity="1"/>
		<rect x="145" y="220" width="182" height="238" fill="none" stroke="#7fbc41" stroke-width="2" opacity="1"/>
		<line x1="145" y1="245" x2="327" y2="245" stroke="#7fbc41" stroke-width="1"/>
	</g>
	<text x="219" y="237.75" fill="#000000" font-family="Verdana" font-size="12">USER</text>
	<text x="150" y="262.8" fill="#000000" font-family="Verdana" font-size="12">id_user</text>
	<line x1="150" y1="265" x2="196" y2="265" stroke="#000000" stroke-width="1"/>
	<text x="150" y="279.8" fill="#000000" font-family="Verdana" font-size="12">firstname VARCHAR(100)</text>
	<text x="150" y="296.8" fill="#000000" font-family="Verdana" font-size="12">lastname VARCHAR(100)</text>
	<text x="150" y="313.8" fill="#000000" font-family="Verdana" font-size="12">email VARCHAR(255)</text>
	<text x="150" y="330.8" fill="#000000" font-family="Verdana" font-size="12">password VARCHAR(255)</text>
	<text x="150" y="347.8" fill="#000000" font-family="Verdana" font-size="12">phone VARCHAR(20)</text>
	<text x="150" y="364.8" fill="#000000" font-family="Verdana" font-size="12">address VARCHAR(255)</text>
	<text x="150" y="381.8" fill="#000000" font-family="Verdana" font-size="12">city VARCHAR(100)</text>
	<text x="150" y="398.8" fill="#000000" font-family="Verdana" font-size="12">country VARCHAR(100)</text>
	<text x="150" y="415.8" fill="#000000" font-family="Verdana" font-size="12">is_active BOOLEAN</text>
	<text x="150" y="432.8" fill="#000000" font-family="Verdana" font-size="12">password_change BOOLEAN</text>
	<text x="150" y="449.8" fill="#000000" font-family="Verdana" font-size="12">password_reset BOOLEAN</text>
</g>

<!-- Entity ORDER -->
<g>
	<g>
		<rect x="482" y="135" width="228" height="25" fill="#b8e186" stroke="none" stroke-width="0" opacity="1"/>
		<rect x="482" y="160" width="228" height="383" fill="#e6f5d0" stroke="none" stroke-width="0" opacity="1"/>
		<rect x="482" y="135" width="228" height="408" fill="none" stroke="#7fbc41" stroke-width="2" opacity="1"/>
		<line x1="482" y1="160" x2="710" y2="160" stroke="#7fbc41" stroke-width="1"/>
	</g>
	<text x="574" y="152.75" fill="#000000" font-family="Verdana" font-size="12">ORDER</text>
	<text x="487" y="177.8" fill="#000000" font-family="Verdana" font-size="12">id_order</text>
	<line x1="487" y1="180" x2="539" y2="180" stroke="#000000" stroke-width="1"/>
	<text x="487" y="194.8" fill="#000000" font-family="Verdana" font-size="12">order_number VARCHAR(30)</text>
	<text x="487" y="211.8" fill="#000000" font-family="Verdana" font-size="12">order_date TIMESTAMP</text>
	<text x="487" y="228.8" fill="#000000" font-family="Verdana" font-size="12">event_date DATE</text>
	<text x="487" y="245.8" fill="#000000" font-family="Verdana" font-size="12">delivery_time TIME</text>
	<text x="487" y="262.8" fill="#000000" font-family="Verdana" font-size="12">delivery_address VARCHAR(255)</text>
	<text x="487" y="279.8" fill="#000000" font-family="Verdana" font-size="12">delivery_city VARCHAR(100)</text>
	<text x="487" y="296.8" fill="#000000" font-family="Verdana" font-size="12">delivery_zipcode VARCHAR(10)</text>
	<text x="487" y="313.8" fill="#000000" font-family="Verdana" font-size="12">number_of_people INT</text>
	<text x="487" y="330.8" fill="#000000" font-family="Verdana" font-size="12">menu_price DECIMAL(10</text>
	<text x="487" y="347.8" fill="#000000" font-family="Verdana" font-size="12">2)</text>
	<text x="487" y="364.8" fill="#000000" font-family="Verdana" font-size="12">reduction_amount DECIMAL(10</text>
	<text x="487" y="381.8" fill="#000000" font-family="Verdana" font-size="12">2)</text>
	<text x="487" y="398.8" fill="#000000" font-family="Verdana" font-size="12">total_amount DECIMAL(10</text>
	<text x="487" y="415.8" fill="#000000" font-family="Verdana" font-size="12">2)</text>
	<text x="487" y="432.8" fill="#000000" font-family="Verdana" font-size="12">delivery_fees DECIMAL(10</text>
	<text x="487" y="449.8" fill="#000000" font-family="Verdana" font-size="12">2)</text>
	<text x="487" y="466.8" fill="#000000" font-family="Verdana" font-size="12">status VARCHAR(30)</text>
	<text x="487" y="483.8" fill="#000000" font-family="Verdana" font-size="12">cancellation_reason VARCHAR(100)</text>
	<text x="487" y="500.8" fill="#000000" font-family="Verdana" font-size="12">contact_mode VARCHAR(30)</text>
	<text x="487" y="517.8" fill="#000000" font-family="Verdana" font-size="12">material_loan BOOLEAN</text>
	<text x="487" y="534.8" fill="#000000" font-family="Verdana" font-size="12">material_return BOOLEAN</text>
</g>

<!-- Entity MENU -->
<g>
	<g>
		<rect x="850" y="254" width="196" height="25" fill="#b8e186" stroke="none" stroke-width="0" opacity="1"/>
		<rect x="850" y="279" width="196" height="145" fill="#e6f5d0" stroke="none" stroke-width="0" opacity="1"/>
		<rect x="850" y="254" width="196" height="170" fill="none" stroke="#7fbc41" stroke-width="2" opacity="1"/>
		<line x1="850" y1="279" x2="1046" y2="279" stroke="#7fbc41" stroke-width="1"/>
	</g>
	<text x="930" y="271.75" fill="#000000" font-family="Verdana" font-size="12">MENU</text>
	<text x="855" y="296.8" fill="#000000" font-family="Verdana" font-size="12">id_menu</text>
	<line x1="855" y1="299" x2="908" y2="299" stroke="#000000" stroke-width="1"/>
	<text x="855" y="313.8" fill="#000000" font-family="Verdana" font-size="12">title VARCHAR(100)</text>
	<text x="855" y="330.8" fill="#000000" font-family="Verdana" font-size="12">min_people INT</text>
	<text x="855" y="347.8" fill="#000000" font-family="Verdana" font-size="12">price_per_people DECIMAL(10</text>
	<text x="855" y="364.8" fill="#000000" font-family="Verdana" font-size="12">2)</text>
	<text x="855" y="381.8" fill="#000000" font-family="Verdana" font-size="12">description VARCHAR(255)</text>
	<text x="855" y="398.8" fill="#000000" font-family="Verdana" font-size="12">conditions VARCHAR(255)</text>
	<text x="855" y="415.8" fill="#000000" font-family="Verdana" font-size="12">stock INT</text>
</g>

<!-- Entity NOTICE -->
<g>
	<g>
		<rect x="332" y="568" width="174" height="25" fill="#b8e186" stroke="none" stroke-width="0" opacity="1"/>
		<rect x="332" y="593" width="174" height="77" fill="#e6f5d0" stroke="none" stroke-width="0" opacity="1"/>
		<rect x="332" y="568" width="174" height="102" fill="none" stroke="#7fbc41" stroke-width="2" opacity="1"/>
		<line x1="332" y1="593" x2="506" y2="593" stroke="#7fbc41" stroke-width="1"/>
	</g>
	<text x="395" y="585.75" fill="#000000" font-family="Verdana" font-size="12">NOTICE</text>
	<text x="337" y="610.8" fill="#000000" font-family="Verdana" font-size="12">id_notice</text>
	<line x1="337" y1="613" x2="393" y2="613" stroke="#000000" stroke-width="1"/>
	<text x="337" y="627.8" fill="#000000" font-family="Verdana" font-size="12">note INT</text>
	<text x="337" y="644.8" fill="#000000" font-family="Verdana" font-size="12">description VARCHAR(255)</text>
	<text x="337" y="661.8" fill="#000000" font-family="Verdana" font-size="12">status VARCHAR(50)</text>
</g>

<!-- Entity THEME -->
<g>
	<g>
		<rect x="715" y="585" width="130" height="25" fill="#b8e186" stroke="none" stroke-width="0" opacity="1"/>
		<rect x="715" y="610" width="130" height="43" fill="#e6f5d0" stroke="none" stroke-width="0" opacity="1"/>
		<rect x="715" y="585" width="130" height="68" fill="none" stroke="#7fbc41" stroke-width="2" opacity="1"/>
		<line x1="715" y1="610" x2="845" y2="610" stroke="#7fbc41" stroke-width="1"/>
	</g>
	<text x="759" y="602.75" fill="#000000" font-family="Verdana" font-size="12">THEME</text>
	<text x="720" y="627.8" fill="#000000" font-family="Verdana" font-size="12">id_theme</text>
	<line x1="720" y1="630" x2="778" y2="630" stroke="#000000" stroke-width="1"/>
	<text x="720" y="644.8" fill="#000000" font-family="Verdana" font-size="12">label VARCHAR(50)</text>
</g>

<!-- Entity DISH -->
<g>
	<g>
		<rect x="1228" y="560" width="178" height="25" fill="#b8e186" stroke="none" stroke-width="0" opacity="1"/>
		<rect x="1228" y="585" width="178" height="93" fill="#e6f5d0" stroke="none" stroke-width="0" opacity="1"/>
		<rect x="1228" y="560" width="178" height="118" fill="none" stroke="#7fbc41" stroke-width="2" opacity="1"/>
		<line x1="1228" y1="585" x2="1406" y2="585" stroke="#7fbc41" stroke-width="1"/>
	</g>
	<text x="1301" y="577.75" fill="#000000" font-family="Verdana" font-size="12">DISH</text>
	<text x="1233" y="602.8" fill="#000000" font-family="Verdana" font-size="12">id_dish</text>
	<line x1="1233" y1="605" x2="1277" y2="605" stroke="#000000" stroke-width="1"/>
	<text x="1233" y="619.8" fill="#000000" font-family="Verdana" font-size="12">title VARCHAR(100)</text>
	<text x="1233" y="636.8" fill="#000000" font-family="Verdana" font-size="12">type VARCHAR(20)</text>
	<text x="1233" y="653.8" fill="#000000" font-family="Verdana" font-size="12">description VARCHAR(255)</text>
	<text x="1233" y="670.8" fill="#000000" font-family="Verdana" font-size="12">photo_path VARCHAR(255)</text>
</g>
</svg>