<?xml version="1.0" encoding="utf-8"?>
<!-- Generated by Mocodo 4.3.2 -->
<svg width="852" height="1386" viewBox="0 0 852 1386" xmlns="http://www.w3.org/2000/svg">
<rect x="0" y="0" width="852" height="1386" fill="#ffffbf" stroke="none" stroke-width="0"/>

<!-- Association HAS -->
<g>
	<line x1="412" y1="119" x2="235" y2="119" stroke="#66c2a5" stroke-width="2"/>
	<line x1="74" y1="119" x2="235" y2="119" stroke="#66c2a5" stroke-width="2"/>
	<g>
		<path d="M241 94 a14 14 90 0 1 14 14 V119 h-40 V108 a14 14 90 0 1 14 -14" fill="#abdda4" stroke="#abdda4" stroke-width="0"/>
		<path d="M255 119 v11 a14 14 90 0 1 -14 14 H229 a14 14 90 0 1 -14 -14 V119 H40" fill="#e6f598" stroke="#e6f598" stroke-width="0"/>
		<rect x="215" y="94" width="40" height="50" fill="none" rx="14" stroke="#66c2a5" stroke-width="2"/>
		<line x1="215" y1="119" x2="255" y2="119" stroke="#66c2a5" stroke-width="1"/>
		<text x="222" y="111.75" fill="#000000" font-family="Verdana" font-size="12">HAS</text>
	</g>
	<text x="295" y="111" fill="#d53e4f" font-family="Verdana" font-size="12">1,1</text>
	<text x="144" y="136" fill="#d53e4f" font-family="Verdana" font-size="12">0,N</text>
</g>

<!-- Association PUBLISH -->
<g>
	<line x1="412" y1="119" x2="603" y2="119" stroke="#66c2a5" stroke-width="2"/>
	<line x1="756" y1="119" x2="603" y2="119" stroke="#66c2a5" stroke-width="2"/>
	<g>
		<path d="M623 94 a14 14 90 0 1 14 14 V119 h-68 V108 a14 14 90 0 1 14 -14" fill="#abdda4" stroke="#abdda4" stroke-width="0"/>
		<path d="M637 119 v11 a14 14 90 0 1 -14 14 H583 a14 14 90 0 1 -14 -14 V119 H68" fill="#e6f598" stroke="#e6f598" stroke-width="0"/>
		<rect x="569" y="94" width="68" height="50" fill="none" rx="14" stroke="#66c2a5" stroke-width="2"/>
		<line x1="569" y1="119" x2="637" y2="119" stroke="#66c2a5" stroke-width="1"/>
		<text x="576" y="111.75" fill="#000000" font-family="Verdana" font-size="12">PUBLISH</text>
	</g>
	<text x="508" y="136" fill="#d53e4f" font-family="Verdana" font-size="12">0,N</text>
	<text x="643" y="111" fill="#d53e4f" font-family="Verdana" font-size="12">1,1</text>
</g>

<!-- Association CONCERNS -->
<g>
	<line x1="756" y1="119" x2="412" y2="279" stroke="#66c2a5" stroke-width="2"/>
	<line x1="412" y1="482" x2="412" y2="279" stroke="#66c2a5" stroke-width="2"/>
	<g>
		<path d="M440 254 a14 14 90 0 1 14 14 V279 h-84 V268 a14 14 90 0 1 14 -14" fill="#abdda4" stroke="#abdda4" stroke-width="0"/>
		<path d="M454 279 v11 a14 14 90 0 1 -14 14 H384 a14 14 90 0 1 -14 -14 V279 H84" fill="#e6f598" stroke="#e6f598" stroke-width="0"/>
		<rect x="370" y="254" width="84" height="50" fill="none" rx="14" stroke="#66c2a5" stroke-width="2"/>
		<line x1="370" y1="279" x2="454" y2="279" stroke="#66c2a5" stroke-width="1"/>
		<text x="378" y="271.75" fill="#000000" font-family="Verdana" font-size="12">CONCERNS</text>
	</g>
	<text x="643" y="155.11" fill="#d53e4f" font-family="Verdana" font-size="12">1,1</text>
	<text x="417" y="321" fill="#d53e4f" font-family="Verdana" font-size="12">0,1</text>
</g>

<!-- Association PLACES -->
<g>
	<line x1="412" y1="482" x2="235" y2="482" stroke="#66c2a5" stroke-width="2"/>
	<line x1="412" y1="119" x2="235" y2="482" stroke="#66c2a5" stroke-width="2"/>
	<g>
		<path d="M252 457 a14 14 90 0 1 14 14 V482 h-62 V471 a14 14 90 0 1 14 -14" fill="#abdda4" stroke="#abdda4" stroke-width="0"/>
		<path d="M266 482 v11 a14 14 90 0 1 -14 14 H218 a14 14 90 0 1 -14 -14 V482 H62" fill="#e6f598" stroke="#e6f598" stroke-width="0"/>
		<rect x="204" y="457" width="62" height="50" fill="none" rx="14" stroke="#66c2a5" stroke-width="2"/>
		<line x1="204" y1="482" x2="266" y2="482" stroke="#66c2a5" stroke-width="1"/>
		<text x="212" y="474.75" fill="#000000" font-family="Verdana" font-size="12">PLACES</text>
	</g>
	<text x="272" y="499" fill="#d53e4f" font-family="Verdana" font-size="12">1,1</text>
	<text x="359.55" y="246" fill="#d53e4f" font-family="Verdana" font-size="12">0,N</text>
</g>

<!-- Association CONTAINS -->
<g>
	<line x1="412" y1="929" x2="603" y2="482" stroke="#66c2a5" stroke-width="2"/>
	<line x1="412" y1="482" x2="603" y2="482" stroke="#66c2a5" stroke-width="2"/>
	<g>
		<path d="M634 457 a14 14 90 0 1 14 14 V482 h-90 V471 a14 14 90 0 1 14 -14" fill="#abdda4" stroke="#abdda4" stroke-width="0"/>
		<path d="M648 482 v11 a14 14 90 0 1 -14 14 H572 a14 14 90 0 1 -14 -14 V482 H90" fill="#e6f598" stroke="#e6f598" stroke-width="0"/>
		<rect x="558" y="457" width="90" height="50" fill="none" rx="14" stroke="#66c2a5" stroke-width="2"/>
		<line x1="558" y1="482" x2="648" y2="482" stroke="#66c2a5" stroke-width="1"/>
		<text x="570" y="474.75" fill="#000000" font-family="Verdana" font-size="12">CONTAINS</text>
		<text x="565" y="499.8" fill="#000000" font-family="Verdana" font-size="12">quantity INT</text>
	</g>
	<text x="424.67" y="836" fill="#d53e4f" font-family="Verdana" font-size="12">0,N</text>
	<text x="531" y="499" fill="#d53e4f" font-family="Verdana" font-size="12">0,N</text>
</g>

<!-- Association TRACKS -->
<g>
	<line x1="412" y1="777" x2="412" y2="685" stroke="#66c2a5" stroke-width="2"/>
	<line x1="412" y1="482" x2="412" y2="685" stroke="#66c2a5" stroke-width="2"/>
	<g>
		<path d="M430 660 a14 14 90 0 1 14 14 V685 h-64 V674 a14 14 90 0 1 14 -14" fill="#abdda4" stroke="#abdda4" stroke-width="0"/>
		<path d="M444 685 v11 a14 14 90 0 1 -14 14 H394 a14 14 90 0 1 -14 -14 V685 H64" fill="#e6f598" stroke="#e6f598" stroke-width="0"/>
		<rect x="380" y="660" width="64" height="50" fill="none" rx="14" stroke="#66c2a5" stroke-width="2"/>
		<line x1="380" y1="685" x2="444" y2="685" stroke="#66c2a5" stroke-width="1"/>
		<text x="387" y="677.75" fill="#000000" font-family="Verdana" font-size="12">TRACKS</text>
	</g>
	<text x="417" y="727" fill="#d53e4f" font-family="Verdana" font-size="12">1,1</text>
	<text x="417" y="652" fill="#d53e4f" font-family="Verdana" font-size="12">0,N</text>
</g>

<!-- Association SUITS -->
<g>
	<line x1="412" y1="929" x2="235" y2="929" stroke="#66c2a5" stroke-width="2"/>
	<line x1="74" y1="929" x2="235" y2="929" stroke="#66c2a5" stroke-width="2"/>
	<g>
		<path d="M248 904 a14 14 90 0 1 14 14 V929 h-54 V918 a14 14 90 0 1 14 -14" fill="#abdda4" stroke="#abdda4" stroke-width="0"/>
		<path d="M262 929 v11 a14 14 90 0 1 -14 14 H222 a14 14 90 0 1 -14 -14 V929 H54" fill="#e6f598" stroke="#e6f598" stroke-width="0"/>
		<rect x="208" y="904" width="54" height="50" fill="none" rx="14" stroke="#66c2a5" stroke-width="2"/>
		<line x1="208" y1="929" x2="262" y2="929" stroke="#66c2a5" stroke-width="1"/>
		<text x="216" y="921.75" fill="#000000" font-family="Verdana" font-size="12">SUITS</text>
	</g>
	<text x="288" y="921" fill="#d53e4f" font-family="Verdana" font-size="12">1,1</text>
	<text x="144" y="946" fill="#d53e4f" font-family="Verdana" font-size="12">0,N</text>
</g>

<!-- Association MATCHES -->
<g>
	<line x1="412" y1="929" x2="603" y2="929" stroke="#66c2a5" stroke-width="2"/>
	<line x1="756" y1="929" x2="603" y2="929" stroke="#66c2a5" stroke-width="2"/>
	<g>
		<path d="M626 904 a14 14 90 0 1 14 14 V929 h-74 V918 a14 14 90 0 1 14 -14" fill="#abdda4" stroke="#abdda4" stroke-width="0"/>
		<path d="M640 929 v11 a14 14 90 0 1 -14 14 H580 a14 14 90 0 1 -14 -14 V929 H74" fill="#e6f598" stroke="#e6f598" stroke-width="0"/>
		<rect x="566" y="904" width="74" height="50" fill="none" rx="14" stroke="#66c2a5" stroke-width="2"/>
		<line x1="566" y1="929" x2="640" y2="929" stroke="#66c2a5" stroke-width="1"/>
		<text x="573" y="921.75" fill="#000000" font-family="Verdana" font-size="12">MATCHES</text>
	</g>
	<text x="515" y="946" fill="#d53e4f" font-family="Verdana" font-size="12">1,1</text>
	<text x="664" y="946" fill="#d53e4f" font-family="Verdana" font-size="12">0,N</text>
</g>

<!-- Association BELONGS_TO -->
<g>
	<line x1="412" y1="1073" x2="235" y2="1073" stroke="#66c2a5" stroke-width="2"/>
	<line x1="412" y1="929" x2="235" y2="1073" stroke="#66c2a5" stroke-width="2"/>
	<g>
		<path d="M270 1048 a14 14 90 0 1 14 14 V1073 h-98 V1062 a14 14 90 0 1 14 -14" fill="#abdda4" stroke="#abdda4" stroke-width="0"/>
		<path d="M284 1073 v11 a14 14 90 0 1 -14 14 H200 a14 14 90 0 1 -14 -14 V1073 H98" fill="#e6f598" stroke="#e6f598" stroke-width="0"/>
		<rect x="186" y="1048" width="98" height="50" fill="none" rx="14" stroke="#66c2a5" stroke-width="2"/>
		<line x1="186" y1="1073" x2="284" y2="1073" stroke="#66c2a5" stroke-width="1"/>
		<text x="193" y="1065.75" fill="#000000" font-family="Verdana" font-size="12">BELONGS_TO</text>
	</g>
	<text x="296" y="1090" fill="#d53e4f" font-family="Verdana" font-size="12">1,1</text>
	<text x="287" y="1006.78" fill="#d53e4f" font-family="Verdana" font-size="12">0,N</text>
</g>

<!-- Association COMPOSES -->
<g>
	<line x1="412" y1="929" x2="74" y2="1191" stroke="#66c2a5" stroke-width="2"/>
	<line x1="235" y1="1191" x2="74" y2="1191" stroke="#66c2a5" stroke-width="2"/>
	<g>
		<path d="M102 1166 a14 14 90 0 1 14 14 V1191 h-84 V1180 a14 14 90 0 1 14 -14" fill="#abdda4" stroke="#abdda4" stroke-width="0"/>
		<path d="M116 1191 v11 a14 14 90 0 1 -14 14 H46 a14 14 90 0 1 -14 -14 V1191 H84" fill="#e6f598" stroke="#e6f598" stroke-width="0"/>
		<rect x="32" y="1166" width="84" height="50" fill="none" rx="14" stroke="#66c2a5" stroke-width="2"/>
		<line x1="32" y1="1191" x2="116" y2="1191" stroke="#66c2a5" stroke-width="1"/>
		<text x="39" y="1183.75" fill="#000000" font-family="Verdana" font-size="12">COMPOSES</text>
	</g>
	<text x="287" y="1002.78" fill="#d53e4f" font-family="Verdana" font-size="12">0,N</text>
	<text x="121" y="1208" fill="#d53e4f" font-family="Verdana" font-size="12">0,N</text>
</g>

<!-- Association HAS_ALLERGEN -->
<g>
	<line x1="235" y1="1191" x2="412" y2="1191" stroke="#66c2a5" stroke-width="2"/>
	<line x1="603" y1="1191" x2="412" y2="1191" stroke="#66c2a5" stroke-width="2"/>
	<g>
		<path d="M454 1166 a14 14 90 0 1 14 14 V1191 h-112 V1180 a14 14 90 0 1 14 -14" fill="#abdda4" stroke="#abdda4" stroke-width="0"/>
		<path d="M468 1191 v11 a14 14 90 0 1 -14 14 H370 a14 14 90 0 1 -14 -14 V1191 H112" fill="#e6f598" stroke="#e6f598" stroke-width="0"/>
		<rect x="356" y="1166" width="112" height="50" fill="none" rx="14" stroke="#66c2a5" stroke-width="2"/>
		<line x1="356" y1="1191" x2="468" y2="1191" stroke="#66c2a5" stroke-width="1"/>
		<text x="363" y="1183.75" fill="#000000" font-family="Verdana" font-size="12">HAS_ALLERGEN</text>
	</g>
	<text x="327" y="1208" fill="#d53e4f" font-family="Verdana" font-size="12">0,N</text>
	<text x="508" y="1208" fill="#d53e4f" font-family="Verdana" font-size="12">0,N</text>
</g>

<!-- Entity ROLE -->
<g>
	<g>
		<rect x="9" y="85" width="130" height="25" fill="#fdae61" stroke="none" stroke-width="0" opacity="1"/>
		<rect x="9" y="110" width="130" height="43" fill="#fee08b" stroke="none" stroke-width="0" opacity="1"/>
		<rect x="9" y="85" width="130" height="68" fill="none" stroke="#f46d43" stroke-width="2" opacity="1"/>
		<line x1="9" y1="110" x2="139" y2="110" stroke="#f46d43" stroke-width="1"/>
	</g>
	<text x="58" y="102.75" fill="#000000" font-family="Verdana" font-size="12">ROLE</text>
	<text x="14" y="127.8" fill="#000000" font-family="Verdana" font-size="12">id_role</text>
	<line x1="14" y1="130" x2="56" y2="130" stroke="#000000" stroke-width="1"/>
	<text x="14" y="144.8" fill="#000000" font-family="Verdana" font-size="12">label VARCHAR(50)</text>
</g>

<!-- Entity USER -->
<g>
	<g>
		<rect x="321" y="9" width="182" height="25" fill="#fdae61" stroke="none" stroke-width="0" opacity="1"/>
		<rect x="321" y="34" width="182" height="195" fill="#fee08b" stroke="none" stroke-width="0" opacity="1"/>
		<rect x="321" y="9" width="182" height="220" fill="none" stroke="#f46d43" stroke-width="2" opacity="1"/>
		<line x1="321" y1="34" x2="503" y2="34" stroke="#f46d43" stroke-width="1"/>
	</g>
	<text x="395" y="26.75" fill="#000000" font-family="Verdana" font-size="12">USER</text>
	<text x="326" y="51.8" fill="#000000" font-family="Verdana" font-size="12">id_user</text>
	<line x1="326" y1="54" x2="372" y2="54" stroke="#000000" stroke-width="1"/>
	<text x="326" y="68.8" fill="#000000" font-family="Verdana" font-size="12">firstname VARCHAR(100)</text>
	<text x="326" y="85.8" fill="#000000" font-family="Verdana" font-size="12">lastname VARCHAR(100)</text>
	<text x="326" y="102.8" fill="#000000" font-family="Verdana" font-size="12">email VARCHAR(255)</text>
	<text x="326" y="119.8" fill="#000000" font-family="Verdana" font-size="12">password VARCHAR(255)</text>
	<text x="326" y="136.8" fill="#000000" font-family="Verdana" font-size="12">phone VARCHAR(20)</text>
	<text x="326" y="153.8" fill="#000000" font-family="Verdana" font-size="12">address VARCHAR(255)</text>
	<text x="326" y="170.8" fill="#000000" font-family="Verdana" font-size="12">city VARCHAR(100)</text>
	<text x="326" y="187.8" fill="#000000" font-family="Verdana" font-size="12">country VARCHAR(100)</text>
	<text x="326" y="204.8" fill="#000000" font-family="Verdana" font-size="12">password_change BOOLEAN</text>
	<text x="326" y="221.8" fill="#000000" font-family="Verdana" font-size="12">password_reset BOOLEAN</text>
</g>

<!-- Entity NOTICE -->
<g>
	<g>
		<rect x="669" y="68" width="174" height="25" fill="#fdae61" stroke="none" stroke-width="0" opacity="1"/>
		<rect x="669" y="93" width="174" height="77" fill="#fee08b" stroke="none" stroke-width="0" opacity="1"/>
		<rect x="669" y="68" width="174" height="102" fill="none" stroke="#f46d43" stroke-width="2" opacity="1"/>
		<line x1="669" y1="93" x2="843" y2="93" stroke="#f46d43" stroke-width="1"/>
	</g>
	<text x="732" y="85.75" fill="#000000" font-family="Verdana" font-size="12">NOTICE</text>
	<text x="674" y="110.8" fill="#000000" font-family="Verdana" font-size="12">id_notice</text>
	<line x1="674" y1="113" x2="730" y2="113" stroke="#000000" stroke-width="1"/>
	<text x="674" y="127.8" fill="#000000" font-family="Verdana" font-size="12">note INT</text>
	<text x="674" y="144.8" fill="#000000" font-family="Verdana" font-size="12">description VARCHAR(255)</text>
	<text x="674" y="161.8" fill="#000000" font-family="Verdana" font-size="12">status VARCHAR(50)</text>
</g>

<!-- Entity ORDER -->
<g>
	<g>
		<rect x="298" y="329" width="228" height="25" fill="#fdae61" stroke="none" stroke-width="0" opacity="1"/>
		<rect x="298" y="354" width="228" height="281" fill="#fee08b" stroke="none" stroke-width="0" opacity="1"/>
		<rect x="298" y="329" width="228" height="306" fill="none" stroke="#f46d43" stroke-width="2" opacity="1"/>
		<line x1="298" y1="354" x2="526" y2="354" stroke="#f46d43" stroke-width="1"/>
	</g>
	<text x="390" y="346.75" fill="#000000" font-family="Verdana" font-size="12">ORDER</text>
	<text x="303" y="371.8" fill="#000000" font-family="Verdana" font-size="12">id_order</text>
	<line x1="303" y1="374" x2="355" y2="374" stroke="#000000" stroke-width="1"/>
	<text x="303" y="388.8" fill="#000000" font-family="Verdana" font-size="12">order_number VARCHAR(30)</text>
	<text x="303" y="405.8" fill="#000000" font-family="Verdana" font-size="12">order_date TIMESTAMP</text>
	<text x="303" y="422.8" fill="#000000" font-family="Verdana" font-size="12">event_date TIMESTAMP</text>
	<text x="303" y="439.8" fill="#000000" font-family="Verdana" font-size="12">delivery_time VARCHAR(30)</text>
	<text x="303" y="456.8" fill="#000000" font-family="Verdana" font-size="12">delivery_address VARCHAR(255)</text>
	<text x="303" y="473.8" fill="#000000" font-family="Verdana" font-size="12">number_of_people INT</text>
	<text x="303" y="490.8" fill="#000000" font-family="Verdana" font-size="12">total_amount DECIMAL(10</text>
	<text x="303" y="507.8" fill="#000000" font-family="Verdana" font-size="12">2)</text>
	<text x="303" y="524.8" fill="#000000" font-family="Verdana" font-size="12">delivery_fees DECIMAL(10</text>
	<text x="303" y="541.8" fill="#000000" font-family="Verdana" font-size="12">2)</text>
	<text x="303" y="558.8" fill="#000000" font-family="Verdana" font-size="12">status VARCHAR(30)</text>
	<text x="303" y="575.8" fill="#000000" font-family="Verdana" font-size="12">cancellation_reason VARCHAR(100)</text>
	<text x="303" y="592.8" fill="#000000" font-family="Verdana" font-size="12">contact_mode VARCHAR(30)</text>
	<text x="303" y="609.8" fill="#000000" font-family="Verdana" font-size="12">material_loan BOOLEAN</text>
	<text x="303" y="626.8" fill="#000000" font-family="Verdana" font-size="12">material_return BOOLEAN</text>
</g>

<!-- Entity ORDER_STATUS_HISTORY -->
<g>
	<g>
		<rect x="326" y="735" width="172" height="25" fill="#fdae61" stroke="none" stroke-width="0" opacity="1"/>
		<rect x="326" y="760" width="172" height="59" fill="#fee08b" stroke="none" stroke-width="0" opacity="1"/>
		<rect x="326" y="735" width="172" height="84" fill="none" stroke="#f46d43" stroke-width="2" opacity="1"/>
		<line x1="326" y1="760" x2="498" y2="760" stroke="#f46d43" stroke-width="1"/>
	</g>
	<text x="331" y="752.75" fill="#000000" font-family="Verdana" font-size="12">ORDER_STATUS_HISTORY</text>
	<text x="331" y="777.8" fill="#000000" font-family="Verdana" font-size="12">id_status_history</text>
	<line x1="331" y1="780" x2="436" y2="780" stroke="#000000" stroke-width="1"/>
	<text x="331" y="794.8" fill="#000000" font-family="Verdana" font-size="12">status VARCHAR(30)</text>
	<text x="331" y="811.8" fill="#000000" font-family="Verdana" font-size="12">changed_at TIMESTAMP</text>
</g>

<!-- Entity THEME -->
<g>
	<g>
		<rect x="9" y="895" width="130" height="25" fill="#fdae61" stroke="none" stroke-width="0" opacity="1"/>
		<rect x="9" y="920" width="130" height="43" fill="#fee08b" stroke="none" stroke-width="0" opacity="1"/>
		<rect x="9" y="895" width="130" height="68" fill="none" stroke="#f46d43" stroke-width="2" opacity="1"/>
		<line x1="9" y1="920" x2="139" y2="920" stroke="#f46d43" stroke-width="1"/>
	</g>
	<text x="53" y="912.75" fill="#000000" font-family="Verdana" font-size="12">THEME</text>
	<text x="14" y="937.8" fill="#000000" font-family="Verdana" font-size="12">id_theme</text>
	<line x1="14" y1="940" x2="72" y2="940" stroke="#000000" stroke-width="1"/>
	<text x="14" y="954.8" fill="#000000" font-family="Verdana" font-size="12">label VARCHAR(50)</text>
</g>

<!-- Entity MENU -->
<g>
	<g>
		<rect x="314" y="844" width="196" height="25" fill="#fdae61" stroke="none" stroke-width="0" opacity="1"/>
		<rect x="314" y="869" width="196" height="145" fill="#fee08b" stroke="none" stroke-width="0" opacity="1"/>
		<rect x="314" y="844" width="196" height="170" fill="none" stroke="#f46d43" stroke-width="2" opacity="1"/>
		<line x1="314" y1="869" x2="510" y2="869" stroke="#f46d43" stroke-width="1"/>
	</g>
	<text x="394" y="861.75" fill="#000000" font-family="Verdana" font-size="12">MENU</text>
	<text x="319" y="886.8" fill="#000000" font-family="Verdana" font-size="12">id_menu</text>
	<line x1="319" y1="889" x2="372" y2="889" stroke="#000000" stroke-width="1"/>
	<text x="319" y="903.8" fill="#000000" font-family="Verdana" font-size="12">title VARCHAR(100)</text>
	<text x="319" y="920.8" fill="#000000" font-family="Verdana" font-size="12">min_people INT</text>
	<text x="319" y="937.8" fill="#000000" font-family="Verdana" font-size="12">price_per_people DECIMAL(10</text>
	<text x="319" y="954.8" fill="#000000" font-family="Verdana" font-size="12">2)</text>
	<text x="319" y="971.8" fill="#000000" font-family="Verdana" font-size="12">description VARCHAR(255)</text>
	<text x="319" y="988.8" fill="#000000" font-family="Verdana" font-size="12">conditions VARCHAR(255)</text>
	<text x="319" y="1005.8" fill="#000000" font-family="Verdana" font-size="12">stock INT</text>
</g>

<!-- Entity DIET -->
<g>
	<g>
		<rect x="691" y="895" width="130" height="25" fill="#fdae61" stroke="none" stroke-width="0" opacity="1"/>
		<rect x="691" y="920" width="130" height="43" fill="#fee08b" stroke="none" stroke-width="0" opacity="1"/>
		<rect x="691" y="895" width="130" height="68" fill="none" stroke="#f46d43" stroke-width="2" opacity="1"/>
		<line x1="691" y1="920" x2="821" y2="920" stroke="#f46d43" stroke-width="1"/>
	</g>
	<text x="741" y="912.75" fill="#000000" font-family="Verdana" font-size="12">DIET</text>
	<text x="696" y="937.8" fill="#000000" font-family="Verdana" font-size="12">id_diet</text>
	<line x1="696" y1="940" x2="738" y2="940" stroke="#000000" stroke-width="1"/>
	<text x="696" y="954.8" fill="#000000" font-family="Verdana" font-size="12">label VARCHAR(50)</text>
</g>

<!-- Entity PICTURE -->
<g>
	<g>
		<rect x="322" y="1039" width="180" height="25" fill="#fdae61" stroke="none" stroke-width="0" opacity="1"/>
		<rect x="322" y="1064" width="180" height="43" fill="#fee08b" stroke="none" stroke-width="0" opacity="1"/>
		<rect x="322" y="1039" width="180" height="68" fill="none" stroke="#f46d43" stroke-width="2" opacity="1"/>
		<line x1="322" y1="1064" x2="502" y2="1064" stroke="#f46d43" stroke-width="1"/>
	</g>
	<text x="385" y="1056.75" fill="#000000" font-family="Verdana" font-size="12">PICTURE</text>
	<text x="327" y="1081.8" fill="#000000" font-family="Verdana" font-size="12">id_picture</text>
	<line x1="327" y1="1084" x2="388" y2="1084" stroke="#000000" stroke-width="1"/>
	<text x="327" y="1098.8" fill="#000000" font-family="Verdana" font-size="12">image_path VARCHAR(255)</text>
</g>

<!-- Entity DISH -->
<g>
	<g>
		<rect x="148" y="1132" width="174" height="25" fill="#fdae61" stroke="none" stroke-width="0" opacity="1"/>
		<rect x="148" y="1157" width="174" height="93" fill="#fee08b" stroke="none" stroke-width="0" opacity="1"/>
		<rect x="148" y="1132" width="174" height="118" fill="none" stroke="#f46d43" stroke-width="2" opacity="1"/>
		<line x1="148" y1="1157" x2="322" y2="1157" stroke="#f46d43" stroke-width="1"/>
	</g>
	<text x="219" y="1149.75" fill="#000000" font-family="Verdana" font-size="12">DISH</text>
	<text x="153" y="1174.8" fill="#000000" font-family="Verdana" font-size="12">id_dish</text>
	<line x1="153" y1="1177" x2="197" y2="1177" stroke="#000000" stroke-width="1"/>
	<text x="153" y="1191.8" fill="#000000" font-family="Verdana" font-size="12">title VARCHAR(100)</text>
	<text x="153" y="1208.8" fill="#000000" font-family="Verdana" font-size="12">type VARCHAR(20)</text>
	<text x="153" y="1225.8" fill="#000000" font-family="Verdana" font-size="12">description VARCHAR(255)</text>
	<text x="153" y="1242.8" fill="#000000" font-family="Verdana" font-size="12">photo_url VARCHAR(255)</text>
</g>

<!-- Entity ALLERGEN -->
<g>
	<g>
		<rect x="535" y="1157" width="136" height="25" fill="#fdae61" stroke="none" stroke-width="0" opacity="1"/>
		<rect x="535" y="1182" width="136" height="43" fill="#fee08b" stroke="none" stroke-width="0" opacity="1"/>
		<rect x="535" y="1157" width="136" height="68" fill="none" stroke="#f46d43" stroke-width="2" opacity="1"/>
		<line x1="535" y1="1182" x2="671" y2="1182" stroke="#f46d43" stroke-width="1"/>
	</g>
	<text x="571" y="1174.75" fill="#000000" font-family="Verdana" font-size="12">ALLERGEN</text>
	<text x="540" y="1199.8" fill="#000000" font-family="Verdana" font-size="12">id_allergen</text>
	<line x1="540" y1="1202" x2="608" y2="1202" stroke="#000000" stroke-width="1"/>
	<text x="540" y="1216.8" fill="#000000" font-family="Verdana" font-size="12">label VARCHAR(100)</text>
</g>

<!-- Entity OPEN_HOURS -->
<g>
	<g>
		<rect x="349" y="1275" width="126" height="25" fill="#fdae61" stroke="none" stroke-width="0" opacity="1"/>
		<rect x="349" y="1300" width="126" height="77" fill="#fee08b" stroke="none" stroke-width="0" opacity="1"/>
		<rect x="349" y="1275" width="126" height="102" fill="none" stroke="#f46d43" stroke-width="2" opacity="1"/>
		<line x1="349" y1="1300" x2="475" y2="1300" stroke="#f46d43" stroke-width="1"/>
	</g>
	<text x="369" y="1292.75" fill="#000000" font-family="Verdana" font-size="12">OPEN_HOURS</text>
	<text x="354" y="1317.8" fill="#000000" font-family="Verdana" font-size="12">id_open_hours INT</text>
	<line x1="354" y1="1320" x2="470" y2="1320" stroke="#000000" stroke-width="1"/>
	<text x="354" y="1334.8" fill="#000000" font-family="Verdana" font-size="12">day VARCHAR(30)</text>
	<text x="354" y="1351.8" fill="#000000" font-family="Verdana" font-size="12">open TIME</text>
	<text x="354" y="1368.8" fill="#000000" font-family="Verdana" font-size="12">close TIME</text>
</g>
</svg>