<?xml version="1.0" encoding="utf-8"?>
<!-- Generated by Mocodo 4.3.2 -->
<svg width="1044" height="882" viewBox="0 0 1044 882" xmlns="http://www.w3.org/2000/svg">
<rect x="0" y="0" width="1044" height="882" fill="#f7f7f7" stroke="none" stroke-width="0"/>

<!-- Association PUBLISH -->
<g>
	<line x1="100" y1="289" x2="100" y2="60" stroke="#e08214" stroke-width="2"/>
	<line x1="254" y1="60" x2="100" y2="60" stroke="#e08214" stroke-width="2"/>
	<g>
		<path d="M120 35 a14 14 90 0 1 14 14 V60 h-68 V49 a14 14 90 0 1 14 -14" fill="#fdb863" stroke="#fdb863" stroke-width="0"/>
		<path d="M134 60 v11 a14 14 90 0 1 -14 14 H80 a14 14 90 0 1 -14 -14 V60 H68" fill="#fee0b6" stroke="#fee0b6" stroke-width="0"/>
		<rect x="66" y="35" width="68" height="50" fill="none" rx="14" stroke="#e08214" stroke-width="2"/>
		<line x1="66" y1="60" x2="134" y2="60" stroke="#e08214" stroke-width="1"/>
		<text x="73" y="52.75" fill="#000000" font-family="Verdana" font-size="12">PUBLISH</text>
	</g>
	<text x="105" y="162" fill="#542788" font-family="Verdana" font-size="12">0,N</text>
	<text x="141" y="77" fill="#542788" font-family="Verdana" font-size="12">1,1</text>
</g>

<!-- Association CONCERNS -->
<g>
	<line x1="254" y1="60" x2="431" y2="60" stroke="#e08214" stroke-width="2"/>
	<line x1="431" y1="289" x2="431" y2="60" stroke="#e08214" stroke-width="2"/>
	<g>
		<path d="M459 35 a14 14 90 0 1 14 14 V60 h-84 V49 a14 14 90 0 1 14 -14" fill="#fdb863" stroke="#fdb863" stroke-width="0"/>
		<path d="M473 60 v11 a14 14 90 0 1 -14 14 H403 a14 14 90 0 1 -14 -14 V60 H84" fill="#fee0b6" stroke="#fee0b6" stroke-width="0"/>
		<rect x="389" y="35" width="84" height="50" fill="none" rx="14" stroke="#e08214" stroke-width="2"/>
		<line x1="389" y1="60" x2="473" y2="60" stroke="#e08214" stroke-width="1"/>
		<text x="397" y="52.75" fill="#000000" font-family="Verdana" font-size="12">CONCERNS</text>
	</g>
	<text x="346" y="77" fill="#542788" font-family="Verdana" font-size="12">1,1</text>
	<text x="436" y="128" fill="#542788" font-family="Verdana" font-size="12">0,1</text>
</g>

<!-- Association PLACES -->
<g>
	<line x1="431" y1="289" x2="254" y2="289" stroke="#e08214" stroke-width="2"/>
	<line x1="100" y1="289" x2="254" y2="289" stroke="#e08214" stroke-width="2"/>
	<g>
		<path d="M271 264 a14 14 90 0 1 14 14 V289 h-62 V278 a14 14 90 0 1 14 -14" fill="#fdb863" stroke="#fdb863" stroke-width="0"/>
		<path d="M285 289 v11 a14 14 90 0 1 -14 14 H237 a14 14 90 0 1 -14 -14 V289 H62" fill="#fee0b6" stroke="#fee0b6" stroke-width="0"/>
		<rect x="223" y="264" width="62" height="50" fill="none" rx="14" stroke="#e08214" stroke-width="2"/>
		<line x1="223" y1="289" x2="285" y2="289" stroke="#e08214" stroke-width="1"/>
		<text x="231" y="281.75" fill="#000000" font-family="Verdana" font-size="12">PLACES</text>
	</g>
	<text x="291" y="306" fill="#542788" font-family="Verdana" font-size="12">1,1</text>
	<text x="196" y="306" fill="#542788" font-family="Verdana" font-size="12">0,N</text>
</g>

<!-- Association TRACKS -->
<g>
	<line x1="784" y1="289" x2="609" y2="289" stroke="#e08214" stroke-width="2"/>
	<line x1="431" y1="289" x2="609" y2="289" stroke="#e08214" stroke-width="2"/>
	<g>
		<path d="M627 264 a14 14 90 0 1 14 14 V289 h-64 V278 a14 14 90 0 1 14 -14" fill="#fdb863" stroke="#fdb863" stroke-width="0"/>
		<path d="M641 289 v11 a14 14 90 0 1 -14 14 H591 a14 14 90 0 1 -14 -14 V289 H64" fill="#fee0b6" stroke="#fee0b6" stroke-width="0"/>
		<rect x="577" y="264" width="64" height="50" fill="none" rx="14" stroke="#e08214" stroke-width="2"/>
		<line x1="577" y1="289" x2="641" y2="289" stroke="#e08214" stroke-width="1"/>
		<text x="584" y="281.75" fill="#000000" font-family="Verdana" font-size="12">TRACKS</text>
	</g>
	<text x="672" y="306" fill="#542788" font-family="Verdana" font-size="12">1,1</text>
	<text x="550" y="306" fill="#542788" font-family="Verdana" font-size="12">0,N</text>
</g>

<!-- Association HAS -->
<g>
	<line x1="100" y1="289" x2="100" y2="501" stroke="#e08214" stroke-width="2"/>
	<line x1="100" y1="645" x2="100" y2="501" stroke="#e08214" stroke-width="2"/>
	<g>
		<path d="M106 476 a14 14 90 0 1 14 14 V501 h-40 V490 a14 14 90 0 1 14 -14" fill="#fdb863" stroke="#fdb863" stroke-width="0"/>
		<path d="M120 501 v11 a14 14 90 0 1 -14 14 H94 a14 14 90 0 1 -14 -14 V501 H40" fill="#fee0b6" stroke="#fee0b6" stroke-width="0"/>
		<rect x="80" y="476" width="40" height="50" fill="none" rx="14" stroke="#e08214" stroke-width="2"/>
		<line x1="80" y1="501" x2="120" y2="501" stroke="#e08214" stroke-width="1"/>
		<text x="87" y="493.75" fill="#000000" font-family="Verdana" font-size="12">HAS</text>
	</g>
	<text x="105" y="425" fill="#542788" font-family="Verdana" font-size="12">1,1</text>
	<text x="105" y="603" fill="#542788" font-family="Verdana" font-size="12">0,N</text>
</g>

<!-- Association CHOOSES -->
<g>
	<line x1="431" y1="289" x2="431" y2="501" stroke="#e08214" stroke-width="2"/>
	<line x1="431" y1="645" x2="431" y2="501" stroke="#e08214" stroke-width="2"/>
	<g>
		<path d="M455 476 a14 14 90 0 1 14 14 V501 h-76 V490 a14 14 90 0 1 14 -14" fill="#fdb863" stroke="#fdb863" stroke-width="0"/>
		<path d="M469 501 v11 a14 14 90 0 1 -14 14 H407 a14 14 90 0 1 -14 -14 V501 H76" fill="#fee0b6" stroke="#fee0b6" stroke-width="0"/>
		<rect x="393" y="476" width="76" height="50" fill="none" rx="14" stroke="#e08214" stroke-width="2"/>
		<line x1="393" y1="501" x2="469" y2="501" stroke="#e08214" stroke-width="1"/>
		<text x="401" y="493.75" fill="#000000" font-family="Verdana" font-size="12">CHOOSES</text>
	</g>
	<text x="436" y="459" fill="#542788" font-family="Verdana" font-size="12">1,1</text>
	<text x="404" y="552" fill="#542788" font-family="Verdana" font-size="12">0,N</text>
</g>

<!-- Association BELONGS_TO -->
<g>
	<line x1="784" y1="501" x2="609" y2="501" stroke="#e08214" stroke-width="2"/>
	<line x1="431" y1="645" x2="609" y2="501" stroke="#e08214" stroke-width="2"/>
	<g>
		<path d="M644 476 a14 14 90 0 1 14 14 V501 h-98 V490 a14 14 90 0 1 14 -14" fill="#fdb863" stroke="#fdb863" stroke-width="0"/>
		<path d="M658 501 v11 a14 14 90 0 1 -14 14 H574 a14 14 90 0 1 -14 -14 V501 H98" fill="#fee0b6" stroke="#fee0b6" stroke-width="0"/>
		<rect x="560" y="476" width="98" height="50" fill="none" rx="14" stroke="#e08214" stroke-width="2"/>
		<line x1="560" y1="501" x2="658" y2="501" stroke="#e08214" stroke-width="1"/>
		<text x="567" y="493.75" fill="#000000" font-family="Verdana" font-size="12">BELONGS_TO</text>
	</g>
	<text x="668" y="518" fill="#542788" font-family="Verdana" font-size="12">1,1</text>
	<text x="534" y="576.7" fill="#542788" font-family="Verdana" font-size="12">0,N</text>
</g>

<!-- Association MATCHES -->
<g>
	<line x1="431" y1="645" x2="254" y2="645" stroke="#e08214" stroke-width="2"/>
	<line x1="254" y1="501" x2="254" y2="645" stroke="#e08214" stroke-width="2"/>
	<g>
		<path d="M277 620 a14 14 90 0 1 14 14 V645 h-74 V634 a14 14 90 0 1 14 -14" fill="#fdb863" stroke="#fdb863" stroke-width="0"/>
		<path d="M291 645 v11 a14 14 90 0 1 -14 14 H231 a14 14 90 0 1 -14 -14 V645 H74" fill="#fee0b6" stroke="#fee0b6" stroke-width="0"/>
		<rect x="217" y="620" width="74" height="50" fill="none" rx="14" stroke="#e08214" stroke-width="2"/>
		<line x1="217" y1="645" x2="291" y2="645" stroke="#e08214" stroke-width="1"/>
		<text x="224" y="637.75" fill="#000000" font-family="Verdana" font-size="12">MATCHES</text>
	</g>
	<text x="307" y="662" fill="#542788" font-family="Verdana" font-size="12">1,1</text>
	<text x="259" y="552" fill="#542788" font-family="Verdana" font-size="12">0,N</text>
</g>

<!-- Association COMPOSES -->
<g>
	<line x1="431" y1="645" x2="609" y2="645" stroke="#e08214" stroke-width="2"/>
	<line x1="609" y1="814" x2="609" y2="645" stroke="#e08214" stroke-width="2"/>
	<g>
		<path d="M637 620 a14 14 90 0 1 14 14 V645 h-84 V634 a14 14 90 0 1 14 -14" fill="#fdb863" stroke="#fdb863" stroke-width="0"/>
		<path d="M651 645 v11 a14 14 90 0 1 -14 14 H581 a14 14 90 0 1 -14 -14 V645 H84" fill="#fee0b6" stroke="#fee0b6" stroke-width="0"/>
		<rect x="567" y="620" width="84" height="50" fill="none" rx="14" stroke="#e08214" stroke-width="2"/>
		<line x1="567" y1="645" x2="651" y2="645" stroke="#e08214" stroke-width="1"/>
		<text x="574" y="637.75" fill="#000000" font-family="Verdana" font-size="12">COMPOSES</text>
	</g>
	<text x="534" y="662" fill="#542788" font-family="Verdana" font-size="12">0,N</text>
	<text x="614" y="747" fill="#542788" font-family="Verdana" font-size="12">0,N</text>
</g>

<!-- Association SUITS -->
<g>
	<line x1="431" y1="645" x2="431" y2="814" stroke="#e08214" stroke-width="2"/>
	<line x1="254" y1="814" x2="431" y2="814" stroke="#e08214" stroke-width="2"/>
	<g>
		<path d="M444 789 a14 14 90 0 1 14 14 V814 h-54 V803 a14 14 90 0 1 14 -14" fill="#fdb863" stroke="#fdb863" stroke-width="0"/>
		<path d="M458 814 v11 a14 14 90 0 1 -14 14 H418 a14 14 90 0 1 -14 -14 V814 H54" fill="#fee0b6" stroke="#fee0b6" stroke-width="0"/>
		<rect x="404" y="789" width="54" height="50" fill="none" rx="14" stroke="#e08214" stroke-width="2"/>
		<line x1="404" y1="814" x2="458" y2="814" stroke="#e08214" stroke-width="1"/>
		<text x="412" y="806.75" fill="#000000" font-family="Verdana" font-size="12">SUITS</text>
	</g>
	<text x="436" y="747" fill="#542788" font-family="Verdana" font-size="12">1,1</text>
	<text x="324" y="831" fill="#542788" font-family="Verdana" font-size="12">0,N</text>
</g>

<!-- Association HAS_ALLERGEN -->
<g>
	<line x1="609" y1="814" x2="784" y2="814" stroke="#e08214" stroke-width="2"/>
	<line x1="967" y1="814" x2="784" y2="814" stroke="#e08214" stroke-width="2"/>
	<g>
		<path d="M826 789 a14 14 90 0 1 14 14 V814 h-112 V803 a14 14 90 0 1 14 -14" fill="#fdb863" stroke="#fdb863" stroke-width="0"/>
		<path d="M840 814 v11 a14 14 90 0 1 -14 14 H742 a14 14 90 0 1 -14 -14 V814 H112" fill="#fee0b6" stroke="#fee0b6" stroke-width="0"/>
		<rect x="728" y="789" width="112" height="50" fill="none" rx="14" stroke="#e08214" stroke-width="2"/>
		<line x1="728" y1="814" x2="840" y2="814" stroke="#e08214" stroke-width="1"/>
		<text x="735" y="806.75" fill="#000000" font-family="Verdana" font-size="12">HAS_ALLERGEN</text>
	</g>
	<text x="701" y="831" fill="#542788" font-family="Verdana" font-size="12">0,N</text>
	<text x="872" y="831" fill="#542788" font-family="Verdana" font-size="12">0,N</text>
</g>

<!-- Entity NOTICE -->
<g>
	<g>
		<rect x="167" y="9" width="174" height="25" fill="#b2abd2" stroke="none" stroke-width="0" opacity="1"/>
		<rect x="167" y="34" width="174" height="77" fill="#d8daeb" stroke="none" stroke-width="0" opacity="1"/>
		<rect x="167" y="9" width="174" height="102" fill="none" stroke="#8073ac" stroke-width="2" opacity="1"/>
		<line x1="167" y1="34" x2="341" y2="34" stroke="#8073ac" stroke-width="1"/>
	</g>
	<text x="230" y="26.75" fill="#000000" font-family="Verdana" font-size="12">NOTICE</text>
	<text x="172" y="51.8" fill="#000000" font-family="Verdana" font-size="12">id_notice</text>
	<line x1="172" y1="54" x2="228" y2="54" stroke="#000000" stroke-width="1"/>
	<text x="172" y="68.8" fill="#000000" font-family="Verdana" font-size="12">note INT</text>
	<text x="172" y="85.8" fill="#000000" font-family="Verdana" font-size="12">description VARCHAR(255)</text>
	<text x="172" y="102.8" fill="#000000" font-family="Verdana" font-size="12">status VARCHAR(50)</text>
</g>

<!-- Entity USER -->
<g>
	<g>
		<rect x="9" y="170" width="182" height="25" fill="#b2abd2" stroke="none" stroke-width="0" opacity="1"/>
		<rect x="9" y="195" width="182" height="213" fill="#d8daeb" stroke="none" stroke-width="0" opacity="1"/>
		<rect x="9" y="170" width="182" height="238" fill="none" stroke="#8073ac" stroke-width="2" opacity="1"/>
		<line x1="9" y1="195" x2="191" y2="195" stroke="#8073ac" stroke-width="1"/>
	</g>
	<text x="83" y="187.75" fill="#000000" font-family="Verdana" font-size="12">USER</text>
	<text x="14" y="212.8" fill="#000000" font-family="Verdana" font-size="12">id_user</text>
	<line x1="14" y1="215" x2="60" y2="215" stroke="#000000" stroke-width="1"/>
	<text x="14" y="229.8" fill="#000000" font-family="Verdana" font-size="12">firstname VARCHAR(100)</text>
	<text x="14" y="246.8" fill="#000000" font-family="Verdana" font-size="12">lastname VARCHAR(100)</text>
	<text x="14" y="263.8" fill="#000000" font-family="Verdana" font-size="12">email VARCHAR(255)</text>
	<text x="14" y="280.8" fill="#000000" font-family="Verdana" font-size="12">password VARCHAR(255)</text>
	<text x="14" y="297.8" fill="#000000" font-family="Verdana" font-size="12">phone VARCHAR(20)</text>
	<text x="14" y="314.8" fill="#000000" font-family="Verdana" font-size="12">address VARCHAR(255)</text>
	<text x="14" y="331.8" fill="#000000" font-family="Verdana" font-size="12">city VARCHAR(100)</text>
	<text x="14" y="348.8" fill="#000000" font-family="Verdana" font-size="12">country VARCHAR(100)</text>
	<text x="14" y="365.8" fill="#000000" font-family="Verdana" font-size="12">is_active BOOLEAN</text>
	<text x="14" y="382.8" fill="#000000" font-family="Verdana" font-size="12">password_change BOOLEAN</text>
	<text x="14" y="399.8" fill="#000000" font-family="Verdana" font-size="12">password_reset BOOLEAN</text>
</g>

<!-- Entity ORDER -->
<g>
	<g>
		<rect x="317" y="136" width="228" height="25" fill="#b2abd2" stroke="none" stroke-width="0" opacity="1"/>
		<rect x="317" y="161" width="228" height="281" fill="#d8daeb" stroke="none" stroke-width="0" opacity="1"/>
		<rect x="317" y="136" width="228" height="306" fill="none" stroke="#8073ac" stroke-width="2" opacity="1"/>
		<line x1="317" y1="161" x2="545" y2="161" stroke="#8073ac" stroke-width="1"/>
	</g>
	<text x="409" y="153.75" fill="#000000" font-family="Verdana" font-size="12">ORDER</text>
	<text x="322" y="178.8" fill="#000000" font-family="Verdana" font-size="12">id_order</text>
	<line x1="322" y1="181" x2="374" y2="181" stroke="#000000" stroke-width="1"/>
	<text x="322" y="195.8" fill="#000000" font-family="Verdana" font-size="12">order_number VARCHAR(30)</text>
	<text x="322" y="212.8" fill="#000000" font-family="Verdana" font-size="12">order_date TIMESTAMP</text>
	<text x="322" y="229.8" fill="#000000" font-family="Verdana" font-size="12">event_date TIMESTAMP</text>
	<text x="322" y="246.8" fill="#000000" font-family="Verdana" font-size="12">delivery_time VARCHAR(30)</text>
	<text x="322" y="263.8" fill="#000000" font-family="Verdana" font-size="12">delivery_address VARCHAR(255)</text>
	<text x="322" y="280.8" fill="#000000" font-family="Verdana" font-size="12">number_of_people INT</text>
	<text x="322" y="297.8" fill="#000000" font-family="Verdana" font-size="12">total_amount DECIMAL(10</text>
	<text x="322" y="314.8" fill="#000000" font-family="Verdana" font-size="12">2)</text>
	<text x="322" y="331.8" fill="#000000" font-family="Verdana" font-size="12">delivery_fees DECIMAL(10</text>
	<text x="322" y="348.8" fill="#000000" font-family="Verdana" font-size="12">2)</text>
	<text x="322" y="365.8" fill="#000000" font-family="Verdana" font-size="12">status VARCHAR(30)</text>
	<text x="322" y="382.8" fill="#000000" font-family="Verdana" font-size="12">cancellation_reason VARCHAR(100)</text>
	<text x="322" y="399.8" fill="#000000" font-family="Verdana" font-size="12">contact_mode VARCHAR(30)</text>
	<text x="322" y="416.8" fill="#000000" font-family="Verdana" font-size="12">material_loan BOOLEAN</text>
	<text x="322" y="433.8" fill="#000000" font-family="Verdana" font-size="12">material_return BOOLEAN</text>
</g>

<!-- Entity ORDER_STATUS_HISTORY -->
<g>
	<g>
		<rect x="698" y="247" width="172" height="25" fill="#b2abd2" stroke="none" stroke-width="0" opacity="1"/>
		<rect x="698" y="272" width="172" height="59" fill="#d8daeb" stroke="none" stroke-width="0" opacity="1"/>
		<rect x="698" y="247" width="172" height="84" fill="none" stroke="#8073ac" stroke-width="2" opacity="1"/>
		<line x1="698" y1="272" x2="870" y2="272" stroke="#8073ac" stroke-width="1"/>
	</g>
	<text x="703" y="264.75" fill="#000000" font-family="Verdana" font-size="12">ORDER_STATUS_HISTORY</text>
	<text x="703" y="289.8" fill="#000000" font-family="Verdana" font-size="12">id_status_history</text>
	<line x1="703" y1="292" x2="808" y2="292" stroke="#000000" stroke-width="1"/>
	<text x="703" y="306.8" fill="#000000" font-family="Verdana" font-size="12">status VARCHAR(30)</text>
	<text x="703" y="323.8" fill="#000000" font-family="Verdana" font-size="12">changed_at TIMESTAMP</text>
</g>

<!-- Entity OPEN_HOURS -->
<g>
	<g>
		<rect x="902" y="230" width="130" height="25" fill="#b2abd2" stroke="none" stroke-width="0" opacity="1"/>
		<rect x="902" y="255" width="130" height="93" fill="#d8daeb" stroke="none" stroke-width="0" opacity="1"/>
		<rect x="902" y="230" width="130" height="118" fill="none" stroke="#8073ac" stroke-width="2" opacity="1"/>
		<line x1="902" y1="255" x2="1032" y2="255" stroke="#8073ac" stroke-width="1"/>
	</g>
	<text x="924" y="247.75" fill="#000000" font-family="Verdana" font-size="12">OPEN_HOURS</text>
	<text x="907" y="272.8" fill="#000000" font-family="Verdana" font-size="12">id_open_hours INT</text>
	<line x1="907" y1="275" x2="1023" y2="275" stroke="#000000" stroke-width="1"/>
	<text x="907" y="289.8" fill="#000000" font-family="Verdana" font-size="12">day VARCHAR(30)</text>
	<text x="907" y="306.8" fill="#000000" font-family="Verdana" font-size="12">open_time TIME</text>
	<text x="907" y="323.8" fill="#000000" font-family="Verdana" font-size="12">close_time TIME</text>
	<text x="907" y="340.8" fill="#000000" font-family="Verdana" font-size="12">is_closed BOOLEAN</text>
</g>

<!-- Entity DIET -->
<g>
	<g>
		<rect x="189" y="467" width="130" height="25" fill="#b2abd2" stroke="none" stroke-width="0" opacity="1"/>
		<rect x="189" y="492" width="130" height="43" fill="#d8daeb" stroke="none" stroke-width="0" opacity="1"/>
		<rect x="189" y="467" width="130" height="68" fill="none" stroke="#8073ac" stroke-width="2" opacity="1"/>
		<line x1="189" y1="492" x2="319" y2="492" stroke="#8073ac" stroke-width="1"/>
	</g>
	<text x="239" y="484.75" fill="#000000" font-family="Verdana" font-size="12">DIET</text>
	<text x="194" y="509.8" fill="#000000" font-family="Verdana" font-size="12">id_diet</text>
	<line x1="194" y1="512" x2="236" y2="512" stroke="#000000" stroke-width="1"/>
	<text x="194" y="526.8" fill="#000000" font-family="Verdana" font-size="12">label VARCHAR(50)</text>
</g>

<!-- Entity PICTURE -->
<g>
	<g>
		<rect x="694" y="467" width="180" height="25" fill="#b2abd2" stroke="none" stroke-width="0" opacity="1"/>
		<rect x="694" y="492" width="180" height="43" fill="#d8daeb" stroke="none" stroke-width="0" opacity="1"/>
		<rect x="694" y="467" width="180" height="68" fill="none" stroke="#8073ac" stroke-width="2" opacity="1"/>
		<line x1="694" y1="492" x2="874" y2="492" stroke="#8073ac" stroke-width="1"/>
	</g>
	<text x="757" y="484.75" fill="#000000" font-family="Verdana" font-size="12">PICTURE</text>
	<text x="699" y="509.8" fill="#000000" font-family="Verdana" font-size="12">id_picture</text>
	<line x1="699" y1="512" x2="760" y2="512" stroke="#000000" stroke-width="1"/>
	<text x="699" y="526.8" fill="#000000" font-family="Verdana" font-size="12">image_path VARCHAR(255)</text>
</g>

<!-- Entity ROLE -->
<g>
	<g>
		<rect x="35" y="611" width="130" height="25" fill="#b2abd2" stroke="none" stroke-width="0" opacity="1"/>
		<rect x="35" y="636" width="130" height="43" fill="#d8daeb" stroke="none" stroke-width="0" opacity="1"/>
		<rect x="35" y="611" width="130" height="68" fill="none" stroke="#8073ac" stroke-width="2" opacity="1"/>
		<line x1="35" y1="636" x2="165" y2="636" stroke="#8073ac" stroke-width="1"/>
	</g>
	<text x="84" y="628.75" fill="#000000" font-family="Verdana" font-size="12">ROLE</text>
	<text x="40" y="653.8" fill="#000000" font-family="Verdana" font-size="12">id_role</text>
	<line x1="40" y1="656" x2="82" y2="656" stroke="#000000" stroke-width="1"/>
	<text x="40" y="670.8" fill="#000000" font-family="Verdana" font-size="12">label VARCHAR(50)</text>
</g>

<!-- Entity MENU -->
<g>
	<g>
		<rect x="333" y="560" width="196" height="25" fill="#b2abd2" stroke="none" stroke-width="0" opacity="1"/>
		<rect x="333" y="585" width="196" height="145" fill="#d8daeb" stroke="none" stroke-width="0" opacity="1"/>
		<rect x="333" y="560" width="196" height="170" fill="none" stroke="#8073ac" stroke-width="2" opacity="1"/>
		<line x1="333" y1="585" x2="529" y2="585" stroke="#8073ac" stroke-width="1"/>
	</g>
	<text x="413" y="577.75" fill="#000000" font-family="Verdana" font-size="12">MENU</text>
	<text x="338" y="602.8" fill="#000000" font-family="Verdana" font-size="12">id_menu</text>
	<line x1="338" y1="605" x2="391" y2="605" stroke="#000000" stroke-width="1"/>
	<text x="338" y="619.8" fill="#000000" font-family="Verdana" font-size="12">title VARCHAR(100)</text>
	<text x="338" y="636.8" fill="#000000" font-family="Verdana" font-size="12">min_people INT</text>
	<text x="338" y="653.8" fill="#000000" font-family="Verdana" font-size="12">price_per_people DECIMAL(10</text>
	<text x="338" y="670.8" fill="#000000" font-family="Verdana" font-size="12">2)</text>
	<text x="338" y="687.8" fill="#000000" font-family="Verdana" font-size="12">description VARCHAR(255)</text>
	<text x="338" y="704.8" fill="#000000" font-family="Verdana" font-size="12">conditions VARCHAR(255)</text>
	<text x="338" y="721.8" fill="#000000" font-family="Verdana" font-size="12">stock INT</text>
</g>

<!-- Entity THEME -->
<g>
	<g>
		<rect x="189" y="780" width="130" height="25" fill="#b2abd2" stroke="none" stroke-width="0" opacity="1"/>
		<rect x="189" y="805" width="130" height="43" fill="#d8daeb" stroke="none" stroke-width="0" opacity="1"/>
		<rect x="189" y="780" width="130" height="68" fill="none" stroke="#8073ac" stroke-width="2" opacity="1"/>
		<line x1="189" y1="805" x2="319" y2="805" stroke="#8073ac" stroke-width="1"/>
	</g>
	<text x="233" y="797.75" fill="#000000" font-family="Verdana" font-size="12">THEME</text>
	<text x="194" y="822.8" fill="#000000" font-family="Verdana" font-size="12">id_theme</text>
	<line x1="194" y1="825" x2="252" y2="825" stroke="#000000" stroke-width="1"/>
	<text x="194" y="839.8" fill="#000000" font-family="Verdana" font-size="12">label VARCHAR(50)</text>
</g>

<!-- Entity DISH -->
<g>
	<g>
		<rect x="522" y="755" width="174" height="25" fill="#b2abd2" stroke="none" stroke-width="0" opacity="1"/>
		<rect x="522" y="780" width="174" height="93" fill="#d8daeb" stroke="none" stroke-width="0" opacity="1"/>
		<rect x="522" y="755" width="174" height="118" fill="none" stroke="#8073ac" stroke-width="2" opacity="1"/>
		<line x1="522" y1="780" x2="696" y2="780" stroke="#8073ac" stroke-width="1"/>
	</g>
	<text x="593" y="772.75" fill="#000000" font-family="Verdana" font-size="12">DISH</text>
	<text x="527" y="797.8" fill="#000000" font-family="Verdana" font-size="12">id_dish</text>
	<line x1="527" y1="800" x2="571" y2="800" stroke="#000000" stroke-width="1"/>
	<text x="527" y="814.8" fill="#000000" font-family="Verdana" font-size="12">title VARCHAR(100)</text>
	<text x="527" y="831.8" fill="#000000" font-family="Verdana" font-size="12">type VARCHAR(20)</text>
	<text x="527" y="848.8" fill="#000000" font-family="Verdana" font-size="12">description VARCHAR(255)</text>
	<text x="527" y="865.8" fill="#000000" font-family="Verdana" font-size="12">photo_url VARCHAR(255)</text>
</g>

<!-- Entity ALLERGEN -->
<g>
	<g>
		<rect x="899" y="780" width="136" height="25" fill="#b2abd2" stroke="none" stroke-width="0" opacity="1"/>
		<rect x="899" y="805" width="136" height="43" fill="#d8daeb" stroke="none" stroke-width="0" opacity="1"/>
		<rect x="899" y="780" width="136" height="68" fill="none" stroke="#8073ac" stroke-width="2" opacity="1"/>
		<line x1="899" y1="805" x2="1035" y2="805" stroke="#8073ac" stroke-width="1"/>
	</g>
	<text x="935" y="797.75" fill="#000000" font-family="Verdana" font-size="12">ALLERGEN</text>
	<text x="904" y="822.8" fill="#000000" font-family="Verdana" font-size="12">id_allergen</text>
	<line x1="904" y1="825" x2="972" y2="825" stroke="#000000" stroke-width="1"/>
	<text x="904" y="839.8" fill="#000000" font-family="Verdana" font-size="12">label VARCHAR(100)</text>
</g>
</svg>